<?xml version="1.0" encoding="utf-8"?>
<!-- Generator: Adobe Illustrator 21.0.0, SVG Export Plug-In . SVG Version: 6.00 Build 0)  -->
<svg version="1.1" id="Layer_1" xmlns="http://www.w3.org/2000/svg" xmlns:xlink="http://www.w3.org/1999/xlink" x="0px" y="0px"
	 viewBox="0 0 100 100" style="enable-background:new 0 0 100 100;" xml:space="preserve">
<style type="text/css">
	.st0{fill:#FFFFFF;}
</style>
<path class="st0" d="M87.3,16.7H12.7c-1.5,0-2.7,1.2-2.7,2.7v61.3c0,1.5,1.2,2.7,2.7,2.7h74.7c1.5,0,2.7-1.2,2.7-2.7V19.3
	C90,17.9,88.8,16.7,87.3,16.7z M87.3,22c0,1.1-0.9,2-2,2l0,0c-1.1,0-2-0.9-2-2l0,0c0-1.1,0.9-2,2-2l0,0C86.4,20,87.3,20.9,87.3,22
	L87.3,22z M82,22c0,1.1-0.9,2-2,2l0,0c-1.1,0-2-0.9-2-2l0,0c0-1.1,0.9-2,2-2l0,0C81.1,20,82,20.9,82,22L82,22z M76.7,22
	c0,1.1-0.9,2-2,2l0,0c-1.1,0-2-0.9-2-2l0,0c0-1.1,0.9-2,2-2l0,0C75.8,20,76.7,20.9,76.7,22L76.7,22z M14.7,20H68c1.1,0,2,0.9,2,2
	s-0.9,2-2,2H14.7c-1.1,0-2-0.9-2-2S13.6,20,14.7,20z M87.3,78c0,1.5-1.2,2.7-2.7,2.7H15.3c-1.5,0-2.7-1.2-2.7-2.7V30
	c0-1.5,1.2-2.7,2.7-2.7h69.3c1.5,0,2.7,1.2,2.7,2.7V78z"/>
</svg>
